<svg width="216" height="192" viewBox="0 0 216 192" fill="none" xmlns="http://www.w3.org/2000/svg">
<path d="M131.621 15.277L127.455 9.80822L131.621 4.34016C132.526 3.15366 132.298 1.45837 131.111 0.553519C130.639 0.193337 130.061 -0.00130969 129.467 4.43752e-05H108.14C106.637 -0.00841853 105.406 1.19467 105.38 2.69836V26.7428H110.797V19.634H129.467C130.966 19.6306 132.178 18.4126 132.175 16.9137C132.174 16.3223 131.979 15.7475 131.621 15.277Z" fill="white"/>
<path d="M46.0932 85.3062C43.8871 85.2947 42.0893 87.0736 42.0778 89.2793C42.0778 89.2969 42.0778 89.3145 42.0778 89.3321V142.177H76.2679V85.3062H46.0932ZM54.9414 127.282C54.9414 128.778 53.7288 129.99 52.2332 129.99C50.7377 129.99 49.5251 128.778 49.5251 127.282V121.463C49.5251 119.967 50.7377 118.755 52.2332 118.755C53.7288 118.755 54.9414 119.967 54.9414 121.463V127.282ZM54.9414 104.616C54.9414 106.111 53.7288 107.324 52.2332 107.324C50.7377 107.324 49.5251 106.111 49.5251 104.616V98.796C49.5251 97.3005 50.7377 96.0879 52.2332 96.0879C53.7288 96.0879 54.9414 97.3005 54.9414 98.796V104.616ZM68.8205 127.282C68.8205 128.778 67.608 129.99 66.1124 129.99C64.6168 129.99 63.4043 128.778 63.4043 127.282V121.463C63.4043 119.967 64.6168 118.755 66.1124 118.755C67.608 118.755 68.8205 119.967 68.8205 121.463V127.282ZM68.8205 104.616C68.8205 106.111 67.608 107.324 66.1124 107.324C64.6168 107.324 63.4043 106.111 63.4043 104.616V98.796C63.4043 97.3005 64.6168 96.0879 66.1124 96.0879C67.608 96.0879 68.8205 97.3005 68.8205 98.796V104.616Z" fill="white"/>
<path d="M107.653 47.5616L81.6842 69.6511V142.177H93.5322V113.975C93.4963 112.573 94.6036 111.408 96.0054 111.372C96.0511 111.371 96.0968 111.371 96.1425 111.372H119.422C120.794 111.337 121.935 112.422 121.97 113.794C121.971 113.855 121.971 113.915 121.968 113.975V142.177H133.477V69.6261L107.653 47.5616ZM119.422 96.1387H95.9895C94.494 96.1387 93.2814 94.9261 93.2814 93.4306C93.2814 91.935 94.494 90.7224 95.9895 90.7224H119.422C120.917 90.7224 122.13 91.935 122.13 93.4306C122.13 94.9261 120.917 96.1387 119.422 96.1387Z" fill="white"/>
<path d="M170.136 85.3062C170.119 85.3062 170.101 85.3062 170.084 85.3062H138.893V142.177H174.099V89.3321C174.117 87.126 172.342 85.3238 170.136 85.3062ZM152.773 127.282C152.773 128.778 151.56 129.99 150.064 129.99C148.569 129.99 147.356 128.778 147.356 127.282V121.463C147.356 119.967 148.569 118.755 150.064 118.755C151.56 118.755 152.773 119.967 152.773 121.463V127.282ZM152.773 104.616C152.773 106.111 151.56 107.324 150.064 107.324C148.569 107.324 147.356 106.111 147.356 104.616V98.796C147.356 97.3005 148.569 96.0879 150.064 96.0879C151.56 96.0879 152.773 97.3005 152.773 98.796V104.616ZM166.313 127.282C166.313 128.778 165.101 129.99 163.605 129.99C162.11 129.99 160.897 128.778 160.897 127.282V121.463C160.897 119.967 162.11 118.755 163.605 118.755C165.101 118.755 166.313 119.967 166.313 121.463V127.282ZM166.313 104.616C166.313 106.111 165.101 107.324 163.605 107.324C162.11 107.324 160.897 106.111 160.897 104.616V98.796C160.897 97.3005 162.11 96.0879 163.605 96.0879C165.101 96.0879 166.313 97.3005 166.313 98.796V104.616Z" fill="white"/>
<path d="M107.784 30.411L69.0294 63.589L73.927 69.2879L106.026 41.9375C107.039 41.0736 108.531 41.0749 109.543 41.9412L141.508 69.2991L146.518 63.5734L107.784 30.411Z" fill="white"/>
<path d="M116.551 116.788H98.9485V142.177H116.551V116.788Z" fill="white"/>
<path d="M8.608 175.192C9.312 175.192 9.888 175.139 10.336 175.032C10.8053 174.904 11.1787 174.744 11.456 174.552C11.7333 174.339 11.9253 174.093 12.032 173.816C12.1387 173.539 12.192 173.229 12.192 172.888C12.192 172.163 11.8507 171.565 11.168 171.096C10.4853 170.605 9.312 170.083 7.648 169.528C6.92267 169.272 6.19733 168.984 5.472 168.664C4.74667 168.323 4.096 167.907 3.52 167.416C2.944 166.904 2.47467 166.296 2.112 165.592C1.74933 164.867 1.568 163.992 1.568 162.968C1.568 161.944 1.76 161.027 2.144 160.216C2.528 159.384 3.072 158.68 3.776 158.104C4.48 157.528 5.33333 157.091 6.336 156.792C7.33867 156.472 8.46933 156.312 9.728 156.312C11.2213 156.312 12.512 156.472 13.6 156.792C14.688 157.112 15.584 157.464 16.288 157.848L14.848 161.784C14.2293 161.464 13.536 161.187 12.768 160.952C12.0213 160.696 11.1147 160.568 10.048 160.568C8.85333 160.568 7.98933 160.739 7.456 161.08C6.944 161.4 6.688 161.901 6.688 162.584C6.688 162.989 6.784 163.331 6.976 163.608C7.168 163.885 7.43467 164.141 7.776 164.376C8.13867 164.589 8.544 164.792 8.992 164.984C9.46133 165.155 9.97333 165.336 10.528 165.528C11.68 165.955 12.6827 166.381 13.536 166.808C14.3893 167.213 15.0933 167.693 15.648 168.248C16.224 168.803 16.6507 169.453 16.928 170.2C17.2053 170.947 17.344 171.853 17.344 172.92C17.344 174.989 16.6187 176.6 15.168 177.752C13.7173 178.883 11.5307 179.448 8.608 179.448C7.62667 179.448 6.74133 179.384 5.952 179.256C5.16267 179.149 4.45867 179.011 3.84 178.84C3.24267 178.669 2.72 178.488 2.272 178.296C1.84533 178.104 1.48267 177.923 1.184 177.752L2.592 173.784C3.25333 174.147 4.064 174.477 5.024 174.776C6.00533 175.053 7.2 175.192 8.608 175.192ZM30.113 170.072C30.113 168.536 29.9103 167.448 29.505 166.808C29.121 166.168 28.449 165.848 27.489 165.848C27.1903 165.848 26.881 165.869 26.561 165.912C26.241 165.933 25.9317 165.965 25.633 166.008V179H20.865V162.744C21.2703 162.637 21.7397 162.531 22.273 162.424C22.8277 162.296 23.4037 162.189 24.001 162.104C24.6197 161.997 25.249 161.923 25.889 161.88C26.529 161.816 27.1583 161.784 27.777 161.784C28.993 161.784 29.9743 161.944 30.721 162.264C31.489 162.563 32.1183 162.925 32.609 163.352C33.2917 162.861 34.0703 162.477 34.945 162.2C35.841 161.923 36.6623 161.784 37.409 161.784C38.753 161.784 39.8517 161.976 40.705 162.36C41.5797 162.723 42.273 163.245 42.785 163.928C43.297 164.611 43.649 165.421 43.841 166.36C44.033 167.299 44.129 168.344 44.129 169.496V179H39.361V170.072C39.361 168.536 39.1583 167.448 38.753 166.808C38.369 166.168 37.697 165.848 36.737 165.848C36.481 165.848 36.1183 165.912 35.649 166.04C35.201 166.168 34.8277 166.328 34.529 166.52C34.6783 167.011 34.7743 167.533 34.817 168.088C34.8597 168.621 34.881 169.197 34.881 169.816V179H30.113V170.072ZM54.8908 175.672C55.3601 175.672 55.8081 175.661 56.2348 175.64C56.6614 175.619 57.0028 175.587 57.2588 175.544V171.928C57.0668 171.885 56.7788 171.843 56.3948 171.8C56.0108 171.757 55.6588 171.736 55.3388 171.736C54.8908 171.736 54.4641 171.768 54.0588 171.832C53.6748 171.875 53.3334 171.971 53.0348 172.12C52.7361 172.269 52.5014 172.472 52.3308 172.728C52.1601 172.984 52.0748 173.304 52.0748 173.688C52.0748 174.435 52.3201 174.957 52.8108 175.256C53.3228 175.533 54.0161 175.672 54.8908 175.672ZM54.5068 161.72C55.9148 161.72 57.0881 161.88 58.0268 162.2C58.9654 162.52 59.7121 162.979 60.2668 163.576C60.8428 164.173 61.2481 164.899 61.4828 165.752C61.7174 166.605 61.8348 167.555 61.8348 168.6V178.52C61.1521 178.669 60.2028 178.84 58.9868 179.032C57.7708 179.245 56.2988 179.352 54.5708 179.352C53.4828 179.352 52.4908 179.256 51.5948 179.064C50.7201 178.872 49.9628 178.563 49.3228 178.136C48.6828 177.688 48.1921 177.112 47.8508 176.408C47.5094 175.704 47.3388 174.84 47.3388 173.816C47.3388 172.835 47.5308 172.003 47.9148 171.32C48.3201 170.637 48.8534 170.093 49.5148 169.688C50.1761 169.283 50.9334 168.995 51.7868 168.824C52.6401 168.632 53.5254 168.536 54.4427 168.536C55.0614 168.536 55.6054 168.568 56.0748 168.632C56.5654 168.675 56.9601 168.739 57.2588 168.824V168.376C57.2588 167.565 57.0134 166.915 56.5228 166.424C56.0321 165.933 55.1788 165.688 53.9628 165.688C53.1521 165.688 52.3521 165.752 51.5628 165.88C50.7734 165.987 50.0908 166.147 49.5148 166.36L48.9068 162.52C49.1841 162.435 49.5254 162.349 49.9308 162.264C50.3574 162.157 50.8161 162.072 51.3068 162.008C51.7974 161.923 52.3094 161.859 52.8428 161.816C53.3974 161.752 53.9521 161.72 54.5068 161.72ZM76.2903 166.392C75.8636 166.285 75.3623 166.179 74.7863 166.072C74.2103 165.944 73.5916 165.88 72.9303 165.88C72.6316 165.88 72.2689 165.912 71.8423 165.976C71.4369 166.019 71.1276 166.072 70.9143 166.136V179H66.1463V163.064C66.9996 162.765 68.0023 162.488 69.1543 162.232C70.3276 161.955 71.6289 161.816 73.0583 161.816C73.3143 161.816 73.6236 161.837 73.9863 161.88C74.3489 161.901 74.7116 161.944 75.0743 162.008C75.4369 162.051 75.7996 162.115 76.1623 162.2C76.5249 162.264 76.8343 162.349 77.0903 162.456L76.2903 166.392ZM79.4863 157.976L84.2543 157.208V162.168H89.9823V166.136H84.2543V172.056C84.2543 173.059 84.4249 173.859 84.7663 174.456C85.1289 175.053 85.8436 175.352 86.9103 175.352C87.4223 175.352 87.9449 175.309 88.4783 175.224C89.0329 175.117 89.5343 174.979 89.9823 174.808L90.6543 178.52C90.0783 178.755 89.4383 178.957 88.7343 179.128C88.0303 179.299 87.1663 179.384 86.1423 179.384C84.8409 179.384 83.7636 179.213 82.9103 178.872C82.0569 178.509 81.3743 178.019 80.8623 177.4C80.3503 176.76 79.9876 175.992 79.7743 175.096C79.5823 174.2 79.4863 173.208 79.4863 172.12V157.976ZM106.385 175.576C107.259 175.576 107.878 175.491 108.241 175.32C108.603 175.149 108.785 174.819 108.785 174.328C108.785 173.944 108.55 173.613 108.081 173.336C107.611 173.037 106.897 172.707 105.937 172.344C105.19 172.067 104.507 171.779 103.889 171.48C103.291 171.181 102.779 170.829 102.353 170.424C101.926 169.997 101.595 169.496 101.361 168.92C101.126 168.344 101.009 167.651 101.009 166.84C101.009 165.261 101.595 164.013 102.769 163.096C103.942 162.179 105.553 161.72 107.601 161.72C108.625 161.72 109.606 161.816 110.545 162.008C111.483 162.179 112.23 162.371 112.785 162.584L111.953 166.296C111.398 166.104 110.79 165.933 110.129 165.784C109.489 165.635 108.763 165.56 107.953 165.56C106.459 165.56 105.713 165.976 105.713 166.808C105.713 167 105.745 167.171 105.809 167.32C105.873 167.469 106.001 167.619 106.193 167.768C106.385 167.896 106.641 168.045 106.961 168.216C107.302 168.365 107.729 168.536 108.241 168.728C109.286 169.112 110.15 169.496 110.833 169.88C111.515 170.243 112.049 170.648 112.433 171.096C112.838 171.523 113.115 172.003 113.265 172.536C113.435 173.069 113.521 173.688 113.521 174.392C113.521 176.056 112.891 177.315 111.633 178.168C110.395 179.021 108.635 179.448 106.353 179.448C104.859 179.448 103.611 179.32 102.609 179.064C101.627 178.808 100.945 178.595 100.561 178.424L101.361 174.552C102.171 174.872 103.003 175.128 103.857 175.32C104.71 175.491 105.553 175.576 106.385 175.576ZM116.284 170.584C116.284 169.368 116.476 168.227 116.86 167.16C117.265 166.072 117.841 165.133 118.588 164.344C119.334 163.533 120.241 162.893 121.308 162.424C122.374 161.955 123.59 161.72 124.956 161.72C125.852 161.72 126.673 161.805 127.42 161.976C128.166 162.125 128.892 162.349 129.596 162.648L128.604 166.456C128.156 166.285 127.665 166.136 127.132 166.008C126.598 165.88 126.001 165.816 125.34 165.816C123.932 165.816 122.876 166.253 122.172 167.128C121.489 168.003 121.148 169.155 121.148 170.584C121.148 172.099 121.468 173.272 122.108 174.104C122.769 174.936 123.91 175.352 125.532 175.352C126.108 175.352 126.726 175.299 127.388 175.192C128.049 175.085 128.657 174.915 129.212 174.68L129.884 178.584C129.329 178.819 128.636 179.021 127.804 179.192C126.972 179.363 126.054 179.448 125.052 179.448C123.516 179.448 122.193 179.224 121.084 178.776C119.974 178.307 119.057 177.677 118.332 176.888C117.628 176.099 117.105 175.171 116.764 174.104C116.444 173.016 116.284 171.843 116.284 170.584ZM133.084 179V154.936L137.852 154.168V162.232C138.172 162.125 138.577 162.029 139.068 161.944C139.58 161.837 140.07 161.784 140.54 161.784C141.905 161.784 143.036 161.976 143.932 162.36C144.849 162.723 145.574 163.245 146.108 163.928C146.662 164.611 147.046 165.421 147.26 166.36C147.494 167.299 147.612 168.344 147.612 169.496V179H142.844V170.072C142.844 168.536 142.641 167.448 142.236 166.808C141.852 166.168 141.126 165.848 140.06 165.848C139.633 165.848 139.228 165.891 138.844 165.976C138.481 166.04 138.15 166.115 137.852 166.2V179H133.084ZM167.672 170.552C167.672 171.875 167.48 173.091 167.096 174.2C166.712 175.288 166.157 176.227 165.432 177.016C164.706 177.784 163.832 178.381 162.808 178.808C161.805 179.235 160.674 179.448 159.416 179.448C158.178 179.448 157.048 179.235 156.024 178.808C155.021 178.381 154.157 177.784 153.432 177.016C152.706 176.227 152.141 175.288 151.736 174.2C151.33 173.091 151.128 171.875 151.128 170.552C151.128 169.229 151.33 168.024 151.736 166.936C152.162 165.848 152.738 164.92 153.464 164.152C154.21 163.384 155.085 162.787 156.088 162.36C157.112 161.933 158.221 161.72 159.416 161.72C160.632 161.72 161.741 161.933 162.744 162.36C163.768 162.787 164.642 163.384 165.368 164.152C166.093 164.92 166.658 165.848 167.064 166.936C167.469 168.024 167.672 169.229 167.672 170.552ZM162.808 170.552C162.808 169.08 162.509 167.928 161.912 167.096C161.336 166.243 160.504 165.816 159.416 165.816C158.328 165.816 157.485 166.243 156.888 167.096C156.29 167.928 155.992 169.08 155.992 170.552C155.992 172.024 156.29 173.197 156.888 174.072C157.485 174.925 158.328 175.352 159.416 175.352C160.504 175.352 161.336 174.925 161.912 174.072C162.509 173.197 162.808 172.024 162.808 170.552ZM187.109 170.552C187.109 171.875 186.917 173.091 186.533 174.2C186.149 175.288 185.594 176.227 184.869 177.016C184.144 177.784 183.269 178.381 182.245 178.808C181.242 179.235 180.112 179.448 178.853 179.448C177.616 179.448 176.485 179.235 175.461 178.808C174.458 178.381 173.594 177.784 172.869 177.016C172.144 176.227 171.578 175.288 171.173 174.2C170.768 173.091 170.565 171.875 170.565 170.552C170.565 169.229 170.768 168.024 171.173 166.936C171.6 165.848 172.176 164.92 172.901 164.152C173.648 163.384 174.522 162.787 175.525 162.36C176.549 161.933 177.658 161.72 178.853 161.72C180.069 161.72 181.178 161.933 182.181 162.36C183.205 162.787 184.08 163.384 184.805 164.152C185.53 164.92 186.096 165.848 186.501 166.936C186.906 168.024 187.109 169.229 187.109 170.552ZM182.245 170.552C182.245 169.08 181.946 167.928 181.349 167.096C180.773 166.243 179.941 165.816 178.853 165.816C177.765 165.816 176.922 166.243 176.325 167.096C175.728 167.928 175.429 169.08 175.429 170.552C175.429 172.024 175.728 173.197 176.325 174.072C176.922 174.925 177.765 175.352 178.853 175.352C179.941 175.352 180.773 174.925 181.349 174.072C181.946 173.197 182.245 172.024 182.245 170.552ZM197.523 179.32C196.136 179.299 195.005 179.149 194.131 178.872C193.277 178.595 192.595 178.211 192.083 177.72C191.592 177.208 191.251 176.6 191.059 175.896C190.888 175.171 190.803 174.36 190.803 173.464V154.936L195.571 154.168V172.504C195.571 172.931 195.603 173.315 195.667 173.656C195.731 173.997 195.848 174.285 196.019 174.52C196.211 174.755 196.477 174.947 196.819 175.096C197.16 175.245 197.619 175.341 198.195 175.384L197.523 179.32ZM205.76 175.576C206.634 175.576 207.253 175.491 207.616 175.32C207.978 175.149 208.16 174.819 208.16 174.328C208.16 173.944 207.925 173.613 207.456 173.336C206.986 173.037 206.272 172.707 205.312 172.344C204.565 172.067 203.882 171.779 203.264 171.48C202.666 171.181 202.154 170.829 201.728 170.424C201.301 169.997 200.97 169.496 200.736 168.92C200.501 168.344 200.384 167.651 200.384 166.84C200.384 165.261 200.97 164.013 202.144 163.096C203.317 162.179 204.928 161.72 206.976 161.72C208 161.72 208.981 161.816 209.92 162.008C210.858 162.179 211.605 162.371 212.16 162.584L211.328 166.296C210.773 166.104 210.165 165.933 209.504 165.784C208.864 165.635 208.138 165.56 207.328 165.56C205.834 165.56 205.088 165.976 205.088 166.808C205.088 167 205.12 167.171 205.184 167.32C205.248 167.469 205.376 167.619 205.568 167.768C205.76 167.896 206.016 168.045 206.336 168.216C206.677 168.365 207.104 168.536 207.616 168.728C208.661 169.112 209.525 169.496 210.208 169.88C210.89 170.243 211.424 170.648 211.808 171.096C212.213 171.523 212.49 172.003 212.64 172.536C212.81 173.069 212.896 173.688 212.896 174.392C212.896 176.056 212.266 177.315 211.008 178.168C209.77 179.021 208.01 179.448 205.728 179.448C204.234 179.448 202.986 179.32 201.984 179.064C201.002 178.808 200.32 178.595 199.936 178.424L200.736 174.552C201.546 174.872 202.378 175.128 203.232 175.32C204.085 175.491 204.928 175.576 205.76 175.576Z" fill="url(#paint0_linear)"/>
<defs>
<linearGradient id="paint0_linear" x1="0" y1="170" x2="216" y2="170" gradientUnits="userSpaceOnUse">
<stop stop-color="white"/>
<stop offset="1" stop-color="white"/>
</linearGradient>
</defs>
</svg>
